<svg viewBox="0 0 131 149" fill="none" xmlns="http://www.w3.org/2000/svg">
<g clip-path="url(#clip0_7_160)">
<path d="M64.36 148.15L128.36 111.33V37.71L64.36 74.52V148.15Z" fill="black"/>
<path d="M64.36 148.15L0.360001 111.33V37.71L64.36 74.52V148.15Z" fill="black"/>
<path d="M0.360001 37.71L64.34 0.760002L128.36 37.71L64.36 74.52L0.360001 37.71Z" fill="black"/>
<path d="M64.2 147.84L128.3 110.98V37.42L64.2 74.29V147.84Z" fill="#C6C6C6"/>
<path d="M64.34 148.18L0.240005 111.31L0.250005 37.3L64.34 74.62V148.18Z" fill="#898989"/>
<path d="M0.279999 37.06L64.18 0.410004L128.3 37.42L64.2 74.29L0.279999 37.06Z" fill="#8D2416"/>
<path d="M64.32 0.5L0.25 37.3L0.26 37.4L3.78 37.76L64.34 2.79L64.32 0.5Z" fill="#898989"/>
<path d="M9.16 40.85L64.34 8.68V2.79L3.78 37.76L9.16 40.85Z" fill="#C6C6C6"/>
<path d="M119.52 40.85L64.34 8.68V2.79L124.91 37.76L119.52 40.85Z" fill="#898989"/>
<path d="M64.32 0.5L128.3 37.42L124.86 37.76L64.34 2.79L64.32 0.5Z" fill="#C6C6C6"/>
<path d="M64.34 74.62L0.25 37.3L0.26 37.4L3.78 37.76L64.32 72.58L64.34 74.62Z" fill="#C6C6C6"/>
<path d="M106.65 37.42L105.16 40.44L101.38 41.86L100.88 38.67L106.65 37.42Z" fill="#898989"/>
<path d="M106.65 37.42C106.65 37.42 103.78 37.33 101.92 37.16C100.06 36.99 97.44 37.38 97.19 39.13C96.76 42.18 97 42.58 97 42.58L102.53 41.3L106.65 37.42Z" fill="#C6C6C6"/>
<path d="M94.62 41.76L66.35 50.63L66.21 53.08C66.18 53.68 66.96 54.21 67.95 54.26C68.38 54.28 68.79 54.21 69.11 54.08L94.48 45.43C94.48 45.43 100.57 45.73 102.44 45.84C104.31 45.95 105.98 46.04 107.4 44.37C108.82 42.7 109.69 39.15 109.69 39.15L106.05 41.29L102.75 42.59L96.76 42.16L94.62 41.75V41.76Z" fill="#898989"/>
<path d="M109.69 39.16L104.91 39.59L98.57 40.9L96.06 40.55C95.41 40.46 94.76 40.52 94.14 40.73L67.37 49.73C66.78 49.88 66.36 50.22 66.34 50.64C66.31 51.24 67.09 51.77 68.08 51.82C68.51 51.84 68.92 51.77 69.24 51.64L94.13 43.16C94.45 43.05 94.78 43 95.11 43.02C96.61 43.1 101.02 43.32 102.56 43.4C104.43 43.5 106.1 43.6 107.52 41.93C108.94 40.26 109.68 39.16 109.68 39.16H109.69Z" fill="#C6C6C6"/>
<path d="M101.52 45.59L81.82 60.93C81.52 61.3 80.87 61.54 80.12 61.5C79.12 61.44 78.34 60.91 78.38 60.32L78.51 57.96L98.69 44.18L100.91 44.3L101.52 45.59Z" fill="#898989"/>
<path d="M105.13 40.9612C105.193 39.8252 103.715 38.8199 101.829 38.7158C99.9429 38.6117 98.3632 39.4481 98.3005 40.5841C98.2377 41.7201 99.7158 42.7254 101.602 42.8295C103.488 42.9336 105.067 42.0971 105.13 40.9612Z" fill="#898989"/>
<path d="M105.153 40.432C105.215 39.296 103.737 38.2907 101.851 38.1866C99.9653 38.0825 98.3856 38.919 98.3229 40.0549C98.2602 41.1909 99.7382 42.1962 101.624 42.3003C103.51 42.4045 105.09 41.568 105.153 40.432Z" fill="#C6C6C6"/>
<path d="M81.95 58.57C81.65 58.94 81 59.18 80.25 59.14C79.25 59.08 78.47 58.55 78.51 57.96C78.52 57.74 78.64 57.54 78.84 57.38L97.1 43.58L100.93 43.79L81.94 58.57H81.95Z" fill="#C6C6C6"/>
<path d="M59.2479 139.642C59.4679 139.515 59.4739 139.113 59.2613 138.745C59.0487 138.377 58.6979 138.181 58.4779 138.308C58.2579 138.435 58.2519 138.837 58.4645 139.205C58.6772 139.573 59.0279 139.769 59.2479 139.642Z" fill="#898989"/>
<path d="M59.2479 78.2827C59.4679 78.1557 59.4739 77.7542 59.2613 77.3859C59.0487 77.0176 58.6979 76.822 58.4779 76.9491C58.2579 77.0761 58.2519 77.4776 58.4645 77.8459C58.6772 78.2142 59.0279 78.4098 59.2479 78.2827Z" fill="#898989"/>
<path d="M70.2036 139.213C70.4162 138.844 70.4102 138.443 70.1902 138.316C69.9702 138.189 69.6195 138.384 69.4068 138.753C69.1942 139.121 69.2002 139.523 69.4202 139.65C69.6402 139.777 69.991 139.581 70.2036 139.213Z" fill="#C6C6C6"/>
<path d="M70.2043 77.8528C70.4169 77.4845 70.4109 77.083 70.1909 76.9559C69.9709 76.8289 69.6201 77.0245 69.4075 77.3928C69.1949 77.7611 69.2009 78.1626 69.4209 78.2896C69.6409 78.4166 69.9916 78.2211 70.2043 77.8528Z" fill="#C6C6C6"/>
<path d="M123.762 47.7471C123.975 47.3788 123.969 46.9773 123.749 46.8503C123.529 46.7232 123.178 46.9188 122.965 47.2871C122.753 47.6554 122.759 48.0569 122.979 48.1839C123.199 48.311 123.549 48.1154 123.762 47.7471Z" fill="#C6C6C6"/>
<path d="M123.761 109.107C123.974 108.739 123.968 108.337 123.748 108.21C123.528 108.083 123.177 108.279 122.964 108.647C122.752 109.015 122.758 109.417 122.978 109.544C123.198 109.671 123.549 109.475 123.761 109.107Z" fill="#C6C6C6"/>
<path d="M69.2964 15.5297C70.1925 15.0389 70.2544 13.4277 69.4346 11.9309C68.6148 10.4341 67.2238 9.61867 66.3277 10.1095C65.4315 10.6003 65.3697 12.2115 66.1895 13.7083C67.0092 15.2051 68.4003 16.0205 69.2964 15.5297Z" fill="#898989"/>
<path d="M71.28 14.32C72.18 13.83 72.24 12.22 71.42 10.72C70.6 9.22 69.21 8.41 68.31 8.9L66.31 10.11C67.21 9.62 68.6 10.43 69.42 11.93C70.24 13.42 70.17 15.03 69.28 15.53L71.28 14.32Z" fill="#C6C6C6"/>
<path d="M56.03 15.64L55.77 20.93C55.77 21.48 55.91 22.04 56.18 22.53C56.92 23.89 59.02 23.86 59.02 23.86C59.02 23.86 57.69 22.57 57.8 21.12C57.84 20.6 58.12 20.26 58.48 20.03C59.11 19.62 59.94 19.59 60.63 19.89C62.49 20.71 64.35 20.9 65.85 20.25C66.69 19.89 67.17 19.38 67.37 18.87L67.64 13.36L64.63 12.08L58.91 14.16L56.02 15.7" fill="#898989"/>
<path d="M68.72 15.67L65.83 15.97L64.47 14.86L65.68 11.04L68.84 13.18L68.72 15.67Z" fill="#898989"/>
<path d="M78.24 23.35L77.22 27.36L65.01 19.63C64.47 19.28 64.5 18.26 65.08 17.36C65.66 16.46 66.58 16.01 67.12 16.36L78.24 23.36V23.35Z" fill="#898989"/>
<path d="M87.54 29.19L86.52 33.2L74.31 25.47C73.77 25.12 73.8 24.1 74.38 23.2C74.96 22.3 75.88 21.85 76.42 22.2L87.54 29.2V29.19Z" fill="#898989"/>
<path d="M60.87 14.9C60.18 14.6 59.36 14.63 58.72 15.04C58.37 15.27 58.08 15.61 58.04 16.13C57.94 17.58 59.26 18.87 59.26 18.87C59.26 18.87 57.16 18.9 56.42 17.54C55.68 16.18 55.9 14.28 57.45 13.55C59 12.82 63.7 10.56 63.7 10.56C63.7 10.56 66.32 11.79 67.2 12.35C68.08 12.91 67.95 14.47 66.09 15.27C64.58 15.92 62.73 15.72 60.87 14.91V14.9Z" fill="#C6C6C6"/>
<path d="M91.36 39.08C92.42 39.77 94.21 38.89 95.35 37.11C96.49 35.33 96.55 33.35 95.49 32.66L79.21 22.07C78.15 21.38 76.36 22.26 75.22 24.04C74.08 25.82 74.02 27.8 75.08 28.49L91.36 39.08Z" fill="#C6C6C6"/>
<path d="M95.1813 37.0037C96.2135 35.4021 96.2674 33.5993 95.3018 32.977C94.3362 32.3547 92.7167 33.1486 91.6846 34.7502C90.6524 36.3518 90.5984 38.1546 91.564 38.7769C92.5296 39.3992 94.1491 38.6053 95.1813 37.0037Z" fill="#898989"/>
<path d="M59.02 23.86L59.26 18.86L57.5 19.84L56.88 22.57L59.02 23.86Z" fill="#898989"/>
<path d="M37.88 49.39V47.74L32.43 46.16C32.43 46.16 31.42 48.08 32.41 48.77C33.4 49.46 35.29 50.68 35.29 50.68L37.87 49.38L37.88 49.39Z" fill="#898989"/>
<path d="M47.49 50.52L41.39 51.35V53.43L62.65 66.74C63.54 67.35 64.83 67.74 66.28 67.75C68.97 67.77 71.15 66.47 71.16 64.86V62.78L68.72 60.8L59.93 57.66L47.49 50.52ZM66.08 65.2C64.5 65.2 63.56 65.51 63.57 64.57C63.57 63.62 64.86 62.86 66.44 62.87C68.02 62.88 69.29 63.66 69.28 64.6C69.27 65.54 67.66 65.21 66.08 65.2Z" fill="#898989"/>
<path d="M44.27 45.5L40.98 42.77L37.26 42.27V44.21L40.69 46.03L40.67 48.73L34.48 49.91V51.85C34.48 51.85 36.97 54.51 39.45 53.59L46.75 49.32C47.16 49.08 47.37 48.68 47.41 48.27V46.18L44.12 44.69L44.28 45.5H44.27Z" fill="#898989"/>
<path d="M39.46 51.65L46.76 47.38C47.64 46.86 47.64 45.58 46.75 45.08L41.9 42.3C41.9 42.3 39.53 41.46 37.25 42.27L40.69 44.09L40.67 46.79L34.47 49.91C34.47 49.91 36.97 52.57 39.46 51.65Z" fill="#C6C6C6"/>
<path d="M69.72 60.67L46.75 48.26L41.39 51.35L62.66 64.66C63.55 65.27 64.84 65.66 66.29 65.67C68.98 65.69 71.16 64.39 71.17 62.78C71.17 61.96 70.62 61.21 69.71 60.68L69.72 60.67ZM66.43 64.22C64.85 64.22 63.58 63.43 63.59 62.49C63.59 61.54 64.88 60.78 66.46 60.79C68.04 60.8 69.31 61.58 69.3 62.52C69.29 63.46 68.01 64.23 66.43 64.22Z" fill="#C6C6C6"/>
<path d="M37.89 47.75L32.44 44.52C32.44 44.52 31.43 46.44 32.42 47.13C33.46 47.86 35.3 49.04 35.3 49.04L37.88 47.74L37.89 47.75Z" fill="#C6C6C6"/>
<path d="M43.07 36.54L34.08 32.78L33.91 32.2L31.38 31.68L30.79 31.8L30.83 32.1L32.23 33.48L33.35 33.43L42.87 37.73L43.07 36.54Z" fill="#898989"/>
<path d="M43.04 36.24L34.05 32.48L33.88 31.9L31.35 31.38L30.79 31.8L32.2 33.18L33.32 33.13L42.84 37.43L43.04 36.24Z" fill="#BABABA"/>
<path d="M46.4191 38.5238C47.1834 36.7543 46.9398 34.9471 45.875 34.4872C44.8103 34.0273 43.3276 35.089 42.5634 36.8585C41.7991 38.6279 42.0427 40.4352 43.1074 40.8951C44.1721 41.3549 45.6548 40.2933 46.4191 38.5238Z" fill="#898989"/>
<path d="M46.47 41.36C46.47 41.36 45.6 40.39 44.01 40.94C42.42 41.49 45.56 36.66 45.56 36.66C45.56 36.66 46.71 38.24 47.5 38.19C48.29 38.14 46.47 41.36 46.47 41.36Z" fill="#898989"/>
<path d="M48.5 37.01C48.5 37.01 47.2 36.92 46.65 35.33C46.1 33.74 44.23 39.19 44.23 39.19C44.23 39.19 46.19 39.12 46.63 39.78C47.07 40.44 48.5 37.02 48.5 37.02V37.01Z" fill="#898989"/>
<path d="M61.27 48.45C62.33 48.91 63.82 47.85 64.58 46.08C65.34 44.31 65.1 42.5 64.04 42.04L50.02 36.39C48.96 35.93 47.47 36.99 46.71 38.76C45.95 40.53 46.19 42.34 47.25 42.8L61.27 48.45Z" fill="#BABABA"/>
<path d="M64.2128 45.9213C64.8325 44.4865 64.6361 43.0215 63.7742 42.6492C62.9123 42.277 61.7112 43.1383 61.0914 44.5732C60.4717 46.008 60.6681 47.473 61.53 47.8453C62.3919 48.2176 63.593 47.3562 64.2128 45.9213Z" fill="#898989"/>
<path d="M49.28 22.95L41.83 24.73V27.03L54.04 33.99C54.37 34.18 54.78 34.18 55.12 33.99L56.16 33.42C56.45 33.26 56.81 33.26 57.1 33.42L59.51 34.79L59.49 36.64C59.46 36.86 59.55 37.11 59.78 37.23L71.88 44.13L79.33 40.09V37.79L49.28 22.93V22.95ZM71.31 41.02C69.87 40.42 68.71 39.71 67.89 38.96C67.07 38.21 69.42 36.9 71.31 36.9C73.2 36.9 74.73 37.82 74.73 38.96C74.73 40.1 73.05 41.74 71.31 41.02Z" fill="#898989"/>
<path d="M73.3 36.05C73.53 35.91 73.91 36.11 74.15 36.49C74.39 36.87 74.39 37.3 74.15 37.45L70.62 39.28L69.2 39.52L68.31 38.71L73.29 36.05H73.3Z" fill="#BABABA"/>
<path d="M49.28 20.65L41.83 24.73L54.04 31.69C54.37 31.88 54.78 31.88 55.12 31.69L56.16 31.12C56.45 30.96 56.81 30.96 57.1 31.12L60.28 32.94C60.56 33.1 60.55 33.5 60.28 33.66L60.1 33.76L59.79 33.93C59.42 34.13 59.36 34.61 59.66 34.87C59.69 34.89 59.75 34.93 59.78 34.95L71.88 41.85L79.33 37.81L49.28 20.65ZM71.31 39.32C69.42 39.32 67.89 38.4 67.89 37.26C67.89 36.12 69.42 35.2 71.31 35.2C73.2 35.2 74.73 36.12 74.73 37.26C74.73 38.4 73.2 39.32 71.31 39.32Z" fill="#BABABA"/>
<path d="M59.52 34.68C59.42 34.45 59.49 34.17 59.72 33.99L56.08 31.9C55.86 31.77 55.51 31.97 55.3 32.33C55.09 32.69 55.1 33.1 55.32 33.22L59.51 35.64L59.53 34.67L59.52 34.68Z" fill="#BABABA"/>
<path d="M64.34 74.62L128.3 37.42L124.86 37.76L64.32 72.58L64.34 74.62Z" fill="#898989"/>
<path d="M23.5 42.3L20.21 40.74L20.97 39.13L24.26 40.69C24.71 40.9 24.9 41.43 24.69 41.88C24.48 42.33 23.95 42.52 23.5 42.31V42.3Z" fill="#898989"/>
<path d="M21.64 38.11C22.25 38.46 22.27 39.57 21.68 40.58C21.09 41.59 20.13 42.13 19.52 41.78L19.01 41.51L21.13 37.85L21.64 38.12V38.11Z" fill="#898989"/>
<path d="M21.1837 40.3152C21.7692 39.3012 21.7513 38.1949 21.1439 37.8442C20.5365 37.4935 19.5695 38.0312 18.984 39.0452C18.3986 40.0592 18.4165 41.1655 19.0239 41.5162C19.6313 41.8669 20.5983 41.3292 21.1837 40.3152Z" fill="#C6C6C6"/>
<path d="M27.84 36.07L31.07 37.75L30.25 39.33L27.02 37.65C26.58 37.42 26.41 36.88 26.64 36.45C26.87 36.01 27.41 35.84 27.84 36.07Z" fill="#C6C6C6"/>
<path d="M29.54 40.32C28.95 39.95 28.97 38.84 29.59 37.85C30.21 36.86 31.2 36.36 31.79 36.73L32.29 37.02L30.04 40.6L29.54 40.31V40.32Z" fill="#C6C6C6"/>
<path d="M32.2395 39.4874C32.8617 38.4956 32.8844 37.3894 32.2902 37.0167C31.696 36.644 30.71 37.1458 30.0878 38.1377C29.4656 39.1295 29.4429 40.2357 30.0371 40.6085C30.6313 40.9812 31.6173 40.4793 32.2395 39.4874Z" fill="#898989"/>
<path d="M22.7 44.21L26.23 43.32L25.79 41.59L22.26 42.48C21.78 42.6 21.49 43.09 21.61 43.56C21.73 44.04 22.22 44.33 22.69 44.21H22.7Z" fill="#C6C6C6"/>
<path d="M25.33 40.46C24.67 40.69 24.43 41.77 24.81 42.87C25.19 43.97 26.03 44.69 26.7 44.46L27.25 44.29L25.88 40.29L25.33 40.46Z" fill="#C6C6C6"/>
<path d="M27.2489 44.3025C27.9126 44.0757 28.1437 42.9937 27.765 41.8857C27.3864 40.7778 26.5413 40.0636 25.8776 40.2904C25.2139 40.5173 24.9829 41.5993 25.3615 42.7072C25.7402 43.8152 26.5852 44.5294 27.2489 44.3025Z" fill="#898989"/>
<path d="M5.70226 109.55C5.92228 109.423 5.92826 109.021 5.71563 108.653C5.503 108.285 5.15228 108.089 4.93226 108.216C4.71225 108.343 4.70626 108.745 4.91889 109.113C5.13152 109.481 5.48225 109.677 5.70226 109.55Z" fill="#898989"/>
<path d="M5.70226 48.1904C5.92228 48.0633 5.92826 47.6618 5.71563 47.2935C5.503 46.9252 5.15228 46.7297 4.93226 46.8567C4.71225 46.9837 4.70626 47.3852 4.91889 47.7535C5.13152 48.1218 5.48225 48.3174 5.70226 48.1904Z" fill="#898989"/>
<path d="M76.33 112.42L81.71 115.31V128.67L76.33 125.78V112.42Z" fill="#898989"/>
<path d="M116.31 89.43L121.68 92.32L81.71 115.31L76.33 112.42L116.31 89.43Z" fill="#8D2416"/>
<path d="M82.08 115.53L121.31 92.97V105.46L82.08 128.02V115.53Z" fill="#C6C6C6"/>
<path d="M120.93 93.62V105.25L82.46 127.38V115.75L120.93 93.62ZM121.68 92.32L81.71 115.31V128.67L121.68 105.68V92.32Z" fill="#898989"/>
<path d="M81.71 115.31L121.68 92.32H118.12L81.69 113.27L81.71 115.31Z" fill="#898989"/>
<path d="M118.12 92.32L114.74 90.33L116.31 89.43L121.68 92.32H118.12Z" fill="#898989"/>
<path d="M81.69 113.27L78.16 111.37L76.33 112.42L81.71 115.31L81.69 113.27Z" fill="#898989"/>
<path d="M12.25 105.23V92.45L51.72 115.15V127.94L12.25 105.23Z" fill="#898989"/>
<path d="M12.5 92.88L51.47 115.3V127.51L12.5 105.09V92.88ZM12 92.02V105.38L51.97 128.37V115.01L12 92.02Z" fill="#3A3A3A"/>
<mask id="mask0_7_160" style="mask-type:luminance" maskUnits="userSpaceOnUse" x="73" y="61" width="48" height="44">
<path d="M73.72 104.67L73.68 88.47L120.55 61.4L120.6 77.6L73.72 104.67Z" fill="white"/>
</mask>
<g mask="url(#mask0_7_160)">
<path d="M91 78.46C87.39 80.55 85.01 84.7 85.03 90.02C85.05 95.34 87.43 96.74 91.05 94.66C94.67 92.58 97.04 88.42 97.02 83.1C97 77.78 94.62 76.38 91 78.46ZM108.8 68.45L105.59 70.3L102.91 77.15L102.85 77.18L100.18 73.42L96.73 75.41L100.91 80.57L96.56 91.19L99.77 89.34L102.62 81.92L102.68 81.88L105.64 85.95L109.08 83.96L104.62 78.49L108.8 68.43M80.29 84.89L73.67 88.71L73.71 104.37L80.94 100.2C82.95 99.04 84.45 96.17 84.45 93.7C84.45 91.01 82.66 91.05 81.37 91.79V91.66C82.75 90.79 83.9 89.24 83.89 86.83C83.88 84.42 82.53 83.59 80.28 84.89M76.66 99.79V96.2L80.07 94.22C80.85 93.77 81.34 94 81.34 94.9V95.66C81.34 96.56 80.85 97.35 80.08 97.8L76.66 99.78M76.64 93.41V89.86L79.58 88.16C80.37 87.71 80.83 87.98 80.84 88.88V89.55C80.84 90.45 80.38 91.26 79.59 91.71L76.64 93.41ZM91.02 91.61C89.24 92.64 88.16 91.84 88.15 89.35V87.02C88.14 84.53 89.2 82.5 90.99 81.47C92.78 80.44 93.84 81.24 93.85 83.73V86.06C93.86 88.55 92.8 90.59 91.02 91.61ZM114.57 78.01C112.8 79.03 111.72 78.24 111.71 75.74V73.41C111.7 70.92 112.76 68.89 114.54 67.86C116.32 66.83 117.4 67.63 117.41 70.12V72.45C117.42 74.94 116.36 76.98 114.57 78.01ZM114.53 64.83C110.92 66.92 108.54 71.07 108.56 76.39C108.58 81.71 110.96 83.11 114.58 81.03C118.2 78.95 120.57 74.79 120.55 69.47C120.53 64.15 118.15 62.75 114.53 64.83Z" fill="#3A3A3A"/>
</g>
<path d="M89.52 116.93L91.54 118L90.52 119.96L88.5 118.89C87.96 118.61 87.75 117.94 88.03 117.4C88.31 116.86 88.98 116.65 89.52 116.93Z" fill="#898989"/>
<path d="M89.64 121.18C88.9 120.72 88.93 119.35 89.7 118.12C90.47 116.89 91.69 116.27 92.43 116.74L93.05 117.1L90.26 121.54L89.64 121.18Z" fill="#898989"/>
<path d="M92.9897 120.157C93.7586 118.932 93.7827 117.562 93.0435 117.098C92.3043 116.635 91.0817 117.252 90.3128 118.478C89.5439 119.704 89.5198 121.074 90.259 121.537C90.9982 122.001 92.2208 121.383 92.9897 120.157Z" fill="#C6C6C6"/>
<path d="M67.81 141.43C67.07 140.97 67.1 139.6 67.87 138.37C68.64 137.14 69.86 136.52 70.6 136.99L71.22 137.35L68.43 141.79L67.81 141.43Z" fill="#898989"/>
<path d="M71.1497 140.404C71.9186 139.178 71.9427 137.809 71.2035 137.345C70.4643 136.881 69.2417 137.499 68.4728 138.725C67.7039 139.951 67.6798 141.32 68.419 141.784C69.1582 142.248 70.3808 141.63 71.1497 140.404Z" fill="#C6C6C6"/>
<path d="M67.81 79.79C67.07 79.33 67.1 77.96 67.87 76.73C68.64 75.5 69.86 74.88 70.6 75.35L71.22 75.71L68.43 80.15L67.81 79.79Z" fill="#898989"/>
<path d="M71.1431 78.7586C71.9121 77.5328 71.9361 76.1632 71.1969 75.6995C70.4577 75.2358 69.2351 75.8536 68.4662 77.0794C67.6973 78.3052 67.6732 79.6747 68.4124 80.1385C69.1516 80.6022 70.3742 79.9844 71.1431 78.7586Z" fill="#C6C6C6"/>
<path d="M122.24 110.64C121.5 110.18 121.53 108.81 122.3 107.58C123.07 106.35 124.29 105.73 125.03 106.2L125.65 106.56L122.86 111L122.24 110.64Z" fill="#898989"/>
<path d="M125.586 109.605C126.355 108.379 126.379 107.01 125.64 106.546C124.901 106.082 123.678 106.7 122.909 107.926C122.14 109.151 122.116 110.521 122.855 110.985C123.595 111.448 124.817 110.831 125.586 109.605Z" fill="#C6C6C6"/>
<path d="M122.24 49C121.5 48.54 121.53 47.17 122.3 45.94C123.07 44.71 124.29 44.09 125.03 44.56L125.65 44.92L122.86 49.36L122.24 49Z" fill="#898989"/>
<path d="M125.59 47.9695C126.359 46.7438 126.383 45.3742 125.643 44.9105C124.904 44.4468 123.682 45.0645 122.913 46.2903C122.144 47.5161 122.12 48.8857 122.859 49.3494C123.598 49.8131 124.821 49.1953 125.59 47.9695Z" fill="#C6C6C6"/>
<path d="M115.52 102.06L117.54 103.13L116.52 105.09L114.5 104.02C113.96 103.74 113.75 103.07 114.03 102.53C114.31 101.99 114.98 101.78 115.52 102.06Z" fill="#898989"/>
<path d="M115.64 106.31C114.9 105.85 114.93 104.48 115.7 103.25C116.47 102.02 117.69 101.4 118.43 101.87L119.05 102.23L116.26 106.67L115.64 106.31Z" fill="#898989"/>
<path d="M118.989 105.28C119.758 104.055 119.782 102.685 119.043 102.221C118.304 101.758 117.081 102.375 116.312 103.601C115.544 104.827 115.519 106.196 116.259 106.66C116.998 107.124 118.22 106.506 118.989 105.28Z" fill="#C6C6C6"/>
<path d="M44.34 116.59L42.32 117.66L43.34 119.62L45.36 118.55C45.9 118.27 46.11 117.6 45.83 117.06C45.55 116.52 44.88 116.31 44.34 116.59Z" fill="#C6C6C6"/>
<path d="M44.23 120.85C44.97 120.39 44.94 119.02 44.17 117.79C43.4 116.56 42.18 115.94 41.44 116.41L40.82 116.77L43.61 121.21L44.23 120.85Z" fill="#C6C6C6"/>
<path d="M43.6089 121.213C44.3481 120.749 44.324 119.38 43.5551 118.154C42.7861 116.928 41.5635 116.31 40.8243 116.774C40.0851 117.238 40.1092 118.607 40.8781 119.833C41.6471 121.059 42.8697 121.677 43.6089 121.213Z" fill="#898989"/>
<path d="M60.3 140.61C61.04 140.15 61.01 138.78 60.24 137.55C59.47 136.32 58.25 135.7 57.51 136.17L56.89 136.53L59.68 140.97L60.3 140.61Z" fill="#C6C6C6"/>
<path d="M59.6825 140.972C60.4218 140.509 60.3977 139.139 59.6287 137.913C58.8598 136.688 57.6372 136.07 56.898 136.533C56.1588 136.997 56.1829 138.367 56.9518 139.593C57.7208 140.818 58.9433 141.436 59.6825 140.972Z" fill="#898989"/>
<path d="M60.3 79.25C61.04 78.79 61.01 77.42 60.24 76.19C59.47 74.96 58.25 74.34 57.51 74.81L56.89 75.17L59.68 79.61L60.3 79.25Z" fill="#C6C6C6"/>
<path d="M59.6859 79.613C60.4252 79.1493 60.4011 77.7797 59.6321 76.5539C58.8632 75.3282 57.6406 74.7104 56.9014 75.1741C56.1622 75.6378 56.1863 77.0074 56.9552 78.2331C57.7241 79.4589 58.9467 80.0767 59.6859 79.613Z" fill="#898989"/>
<path d="M6.75 110.51C7.49 110.05 7.46 108.68 6.69 107.45C5.92 106.22 4.7 105.6 3.96 106.07L3.34 106.43L6.13 110.87L6.75 110.51Z" fill="#C6C6C6"/>
<path d="M6.12877 110.862C6.86797 110.398 6.84388 109.029 6.07495 107.803C5.30603 106.577 4.08344 105.959 3.34424 106.423C2.60503 106.887 2.62912 108.256 3.39805 109.482C4.16698 110.708 5.38956 111.326 6.12877 110.862Z" fill="#898989"/>
<path d="M6.75001 49.15C7.49001 48.69 7.46001 47.32 6.69001 46.09C5.92001 44.86 4.70001 44.24 3.96001 44.71L3.34001 45.07L6.13001 49.51L6.75001 49.15Z" fill="#C6C6C6"/>
<path d="M6.13215 49.5026C6.87136 49.0389 6.84727 47.6693 6.07834 46.4435C5.30941 45.2177 4.08683 44.5999 3.34762 45.0636C2.60842 45.5273 2.63251 46.8969 3.40143 48.1227C4.17036 49.3485 5.39295 49.9663 6.13215 49.5026Z" fill="#898989"/>
<path d="M18.34 101.72L16.32 102.79L17.34 104.75L19.36 103.68C19.9 103.4 20.11 102.73 19.83 102.19C19.55 101.65 18.88 101.44 18.34 101.72Z" fill="#C6C6C6"/>
<path d="M18.23 105.98C18.97 105.52 18.94 104.15 18.17 102.92C17.4 101.69 16.18 101.07 15.44 101.54L14.82 101.9L17.61 106.34L18.23 105.98Z" fill="#C6C6C6"/>
<path d="M17.6118 106.343C18.351 105.879 18.3269 104.509 17.558 103.283C16.7891 102.058 15.5665 101.44 14.8273 101.904C14.0881 102.367 14.1122 103.737 14.8811 104.963C15.65 106.188 16.8726 106.806 17.6118 106.343Z" fill="#898989"/>
<path d="M12.25 87.86V75.08L51.72 97.78V110.57L12.25 87.86Z" fill="#898989"/>
<path d="M12.5 75.51L51.47 97.93V110.14L12.5 87.72V75.51ZM12 74.65V88.01L51.97 111V97.64L12 74.65Z" fill="#3A3A3A"/>
<path d="M44.34 99.22L42.32 100.29L43.34 102.25L45.36 101.18C45.9 100.9 46.11 100.23 45.83 99.69C45.55 99.15 44.88 98.94 44.34 99.22Z" fill="#C6C6C6"/>
<path d="M44.23 103.48C44.97 103.02 44.94 101.65 44.17 100.42C43.4 99.19 42.18 98.57 41.44 99.04L40.82 99.4L43.61 103.84L44.23 103.48Z" fill="#C6C6C6"/>
<path d="M43.6032 103.83C44.3424 103.366 44.3183 101.997 43.5493 100.771C42.7804 99.545 41.5578 98.9272 40.8186 99.3909C40.0794 99.8547 40.1035 101.224 40.8724 102.45C41.6414 103.676 42.864 104.294 43.6032 103.83Z" fill="#898989"/>
<path d="M18.34 84.35L16.32 85.42L17.34 87.38L19.36 86.31C19.9 86.03 20.11 85.36 19.83 84.82C19.55 84.28 18.88 84.07 18.34 84.35Z" fill="#C6C6C6"/>
<path d="M18.23 88.61C18.97 88.15 18.94 86.78 18.17 85.55C17.4 84.32 16.18 83.7 15.44 84.17L14.82 84.53L17.61 88.97L18.23 88.61Z" fill="#C6C6C6"/>
<path d="M17.6061 88.9595C18.3453 88.4958 18.3212 87.1262 17.5523 85.9005C16.7833 84.6747 15.5608 84.0569 14.8216 84.5206C14.0824 84.9843 14.1064 86.3539 14.8754 87.5797C15.6443 88.8054 16.8669 89.4232 17.6061 88.9595Z" fill="#898989"/>
<path d="M11.84 56.48L6.47 59.37L46.44 82.36L51.82 79.47L11.84 56.48Z" fill="#8D2416"/>
<path d="M46.44 95.72L6.47 72.73V59.37L46.44 82.36V95.72Z" fill="#898989"/>
<path d="M49.99 78.41L46.46 80.31L10.03 59.37L13.41 57.38L11.84 56.48L6.47 59.37L46.44 82.36V95.72L51.82 92.83V79.47L49.99 78.41Z" fill="#C6C6C6"/>
<path d="M38.59 83.93L36.57 85L37.59 86.96L39.61 85.89C40.15 85.61 40.36 84.94 40.08 84.4C39.8 83.86 39.13 83.65 38.59 83.93Z" fill="#C6C6C6"/>
<path d="M38.47 88.18C39.21 87.72 39.18 86.35 38.41 85.12C37.64 83.89 36.42 83.27 35.68 83.74L35.06 84.1L37.85 88.54L38.47 88.18Z" fill="#C6C6C6"/>
<path d="M37.8487 88.5382C38.5879 88.0745 38.5638 86.7049 37.7948 85.4792C37.0259 84.2534 35.8033 83.6356 35.0641 84.0993C34.3249 84.563 34.349 85.9326 35.1179 87.1584C35.8869 88.3842 37.1095 89.0019 37.8487 88.5382Z" fill="#898989"/>
<path d="M12.59 69.06L10.57 70.13L11.59 72.09L13.61 71.02C14.15 70.74 14.36 70.07 14.08 69.53C13.8 68.99 13.13 68.78 12.59 69.06Z" fill="#C6C6C6"/>
<path d="M12.47 73.31C13.21 72.85 13.18 71.48 12.41 70.25C11.64 69.02 10.42 68.4 9.68 68.87L9.06 69.23L11.85 73.67L12.47 73.31Z" fill="#C6C6C6"/>
<path d="M11.8516 73.6679C12.5908 73.2042 12.5667 71.8346 11.7978 70.6088C11.0288 69.383 9.80627 68.7653 9.06706 69.229C8.32785 69.6927 8.35194 71.0623 9.12087 72.288C9.8898 73.5138 11.1124 74.1316 11.8516 73.6679Z" fill="#898989"/>
<path d="M11.83 57.05L51.31 79.76V92.53L46.44 95.15L6.96 72.43V59.66L11.83 57.04M11.83 56.47L6.45 59.36V72.72L46.42 95.71L51.8 92.82V79.46L11.84 56.47H11.83Z" fill="#3A3A3A"/>
<path d="M116.29 89.97L121.16 92.59V105.36L81.68 128.07L76.81 125.45V112.68L116.29 89.97ZM116.29 89.4L76.32 112.39V125.75L81.7 128.64L121.67 105.65V92.29L116.29 89.4Z" fill="#3A3A3A"/>
<path d="M128.45 111.31V37.3L64.35 0.290001L0.25 37.3V111.31L64.35 148.32L128.45 111.31Z" stroke="#3A3A3A" stroke-width="0.5" stroke-miterlimit="10"/>
</g>
<defs>
<clipPath id="clip0_7_160">
<rect width="130.18" height="148.61" fill="white"/>
</clipPath>
</defs>
</svg>
