<svg id="Warstwa_1" data-name="Warstwa 1" xmlns="http://www.w3.org/2000/svg" viewBox="0 0 270 270"><title>cenas_color</title><path d="M250.865,188.906V81.087a22.494,22.494,0,0,0-11.246-19.481l-93.372-53.9a22.5,22.5,0,0,0-22.494,0l-93.37,53.9A22.5,22.5,0,0,0,19.135,81.087V188.9a22.491,22.491,0,0,0,11.248,19.48l93.37,53.912a22.5,22.5,0,0,0,22.494,0l93.372-53.908A22.494,22.494,0,0,0,250.865,188.906Z" fill="#1d74f2"/><path d="M234.732,185.939V85.259a3.983,3.983,0,1,0-1.086-7.8L138.81,23.588a3.983,3.983,0,1,0-7.6.076l-93.1,55.08a3.983,3.983,0,1,0-2.844,6.77v100.68a3.983,3.983,0,1,0,3.424,5.989L131.2,246.352a3.925,3.925,0,0,0-.188,1.148,3.983,3.983,0,1,0,7.781-1.148l92.615-54.228a3.983,3.983,0,1,0,3.32-6.182Zm-102-25.058v31.612L90.4,169.409V137.614Zm4.538,31.039V146.1l33.055-20.88v45.821Zm1.328,53.893a3.991,3.991,0,0,0-1.328-1.583V197.281L213.5,149.125V138.278a7.142,7.142,0,1,0-4.538,0v8.346l-34.1,21.54V122.35l10.21-6.451V105.054a7.145,7.145,0,1,0-4.537,0V113.4L137.269,140.73V119.621l21.121-13.339V86.622a7.144,7.144,0,1,0-4.538,0v17.155l-16.583,10.477V61.037a7.144,7.144,0,1,0-4.538,0v40.536L115.558,90.725V78.94a7.144,7.144,0,1,0-4.538,0V93.225l21.711,13.715v48.77L114.47,145.692V124.509a7.145,7.145,0,1,0-4.537,0v18.7L82.6,128.221V111.373a7.145,7.145,0,1,0-4.536,0v19.459l8.275,4.549V167.2L61.549,153.677v-8.346a7.144,7.144,0,1,0-4.538,0v10.847l75.72,41.47v46.587a4,4,0,0,0-1.328,1.582l-92.45-54.133a3.959,3.959,0,0,0-3.119-5.431V85.456a3.954,3.954,0,0,0,2.642-6.269L131.409,24.2a3.968,3.968,0,0,0,7.212-.07l94.341,53.587a3.962,3.962,0,0,0,1.207,7.483V186a3.973,3.973,0,0,0-3.416,3.928,3.925,3.925,0,0,0,.393,1.7Z" fill="#fff"/></svg>