<svg id="Warstwa_1" data-name="Warstwa 1" xmlns="http://www.w3.org/2000/svg" viewBox="0 0 270 270"><title>ipfs-icons-size-corrected</title><g opacity="0.9"><g opacity="0.9"><polygon points="134.993 139.232 134.996 139.232 134.996 139.232 135.312 139.051 172.658 117.563 134.991 95.644 134.991 95.644 134.991 95.644 134.991 95.644 134.988 95.644 97.317 117.306 134.988 139.23 134.993 139.232" fill="#bec831"/><polygon points="134.988 182.818 134.988 182.818 134.991 182.818 134.991 139.235 134.991 139.235 97.315 117.309 97.315 117.309 97.312 117.309 97.312 160.892 97.331 160.902 134.988 182.818" fill="#a1a938"/><polygon points="172.666 117.568 135.312 139.051 134.993 139.232 134.991 139.235 134.991 182.818 134.996 182.823 134.999 182.823 134.999 182.823 172.669 161.162 172.669 161.162 172.669 161.156 172.669 117.571 172.666 117.571 172.666 117.568" fill="#999b37"/></g><g opacity="0.9"><polygon points="172.675 161.156 172.675 161.156 172.677 161.156 172.993 160.973 210.337 139.486 172.672 117.565 172.672 117.565 172.672 117.565 172.669 117.565 172.669 117.565 134.999 139.23 172.669 161.154 172.675 161.156" fill="#cc2a65"/><polygon points="172.669 204.742 172.669 204.742 172.672 204.742 172.672 161.159 172.672 161.159 134.993 139.232 134.993 139.232 134.993 139.232 134.993 182.815 135.009 182.826 172.669 204.742" fill="#a21d4c"/><polygon points="210.345 139.492 172.991 160.973 172.675 161.156 172.669 161.159 172.669 204.742 172.677 204.747 172.677 204.745 172.68 204.747 210.348 183.083 210.348 183.083 210.348 183.077 210.348 139.492 210.345 139.492 210.345 139.492" fill="#b62454"/></g><g opacity="0.9"><polygon points="210.35 183.085 210.353 183.083 210.353 183.085 210.672 182.902 248.015 161.416 210.348 139.494 210.348 139.494 210.348 139.494 210.348 139.494 210.345 139.494 172.675 161.159 210.345 183.083 210.35 183.085" fill="#cc2a65"/><polygon points="210.345 226.671 210.345 226.671 210.348 226.671 210.348 183.088 210.348 183.088 172.672 161.162 172.672 161.162 172.672 161.162 172.672 204.745 172.688 204.755 210.345 226.671" fill="#a21d4c"/><polygon points="248.024 161.421 210.669 182.902 210.35 183.085 210.348 183.088 210.348 226.671 210.356 226.674 210.356 226.674 210.356 226.676 248.026 205.012 248.026 205.015 248.026 205.009 248.026 161.421 248.024 161.424 248.024 161.421" fill="#b62454"/></g><g opacity="0.9"><polygon points="97.325 160.894 97.325 160.894 97.325 160.894 97.644 160.713 134.988 139.224 97.323 117.306 97.32 117.306 97.32 117.306 97.32 117.306 97.32 117.306 59.647 138.968 97.32 160.892 97.325 160.894" fill="#c8d92b"/><polygon points="97.32 204.48 97.32 204.48 97.32 204.48 97.32 160.897 97.32 160.897 59.644 138.97 59.644 138.973 59.644 138.97 59.644 182.556 59.66 182.564 97.32 204.48" fill="#c2d02f"/><polygon points="134.996 139.23 97.642 160.713 97.325 160.894 97.32 160.897 97.32 204.48 97.328 204.485 97.328 204.485 97.328 204.485 134.999 182.823 134.999 182.823 134.999 182.818 134.999 139.23 134.996 139.232 134.996 139.23" fill="#b9be33"/></g><g opacity="0.9"><polygon points="135.004 182.818 135.004 182.815 135.007 182.818 135.323 182.634 172.669 161.148 135.001 139.227 135.001 139.227 135.001 139.227 135.001 139.227 134.999 139.227 97.328 160.892 134.999 182.815 135.004 182.818" fill="#cc2a65"/><polygon points="134.999 226.404 134.999 226.404 135.001 226.404 135.001 182.821 135.001 182.821 97.325 160.894 97.325 160.894 97.323 160.894 97.323 204.477 97.342 204.488 134.999 226.404" fill="#a21d4c"/><polygon points="172.677 161.154 135.323 182.634 135.004 182.818 135.001 182.821 135.001 226.404 135.007 226.406 135.007 226.406 135.009 226.409 172.677 204.745 172.68 204.747 172.68 204.742 172.68 161.154 172.677 161.156 172.677 161.154" fill="#b62454"/></g><g opacity="0.9"><polygon points="172.683 204.747 172.683 204.747 172.685 204.747 173.001 204.564 210.345 183.077 172.68 161.156 172.68 161.156 172.68 161.156 172.677 161.156 172.677 161.156 135.007 182.821 172.677 204.745 172.683 204.747" fill="#33b4d7"/><polygon points="172.677 248.333 172.677 248.333 172.68 248.333 172.68 204.75 172.68 204.75 135.001 182.823 135.001 182.823 135.001 182.823 135.001 226.406 135.018 226.417 172.677 248.333" fill="#209ac5"/><polygon points="210.356 183.083 172.999 204.564 172.683 204.747 172.677 204.75 172.677 248.333 172.685 248.338 172.685 248.336 172.685 248.338 210.356 226.674 210.356 226.674 210.356 226.668 210.356 183.083 210.356 183.083 210.356 183.083" fill="#0f8cae"/></g><g opacity="0.9"><polygon points="59.655 182.559 59.655 182.559 59.658 182.559 59.974 182.375 97.317 160.889 59.652 138.968 59.652 138.968 59.652 138.968 59.65 138.968 59.65 138.968 21.979 160.632 59.65 182.556 59.655 182.559" fill="#94d6e3"/><polygon points="59.65 226.144 59.65 226.144 59.652 226.144 59.652 182.561 59.652 182.561 21.974 160.635 21.974 160.635 21.974 160.635 21.974 204.218 21.99 204.229 59.65 226.144" fill="#73ccdd"/><polygon points="97.328 160.894 59.974 182.375 59.655 182.559 59.65 182.561 59.65 226.144 59.658 226.147 59.658 226.147 59.66 226.15 97.328 204.485 97.328 204.485 97.328 204.483 97.328 160.894 97.328 160.897 97.328 160.894" fill="#3bafbb"/></g><g opacity="0.9"><polygon points="97.334 204.48 97.336 204.48 97.336 204.48 97.652 204.299 134.999 182.81 97.331 160.892 97.331 160.892 97.331 160.892 97.331 160.892 97.328 160.892 59.658 182.553 97.328 204.477 97.334 204.48" fill="#94d6e3"/><polygon points="97.328 248.065 97.328 248.065 97.331 248.068 97.331 204.483 97.331 204.483 59.655 182.559 59.655 182.559 59.652 182.556 59.652 226.142 59.671 226.15 97.328 248.065" fill="#73ccdd"/><polygon points="135.007 182.815 97.652 204.299 97.334 204.48 97.331 204.483 97.331 248.065 97.339 248.071 97.339 248.071 97.339 248.071 135.009 226.409 135.009 226.409 135.009 226.404 135.009 182.818 135.007 182.818 135.007 182.815" fill="#3bafbb"/></g><g opacity="0.9"><polygon points="135.012 226.409 135.012 226.409 135.015 226.409 135.331 226.228 172.677 204.739 135.009 182.821 135.009 182.821 135.009 182.821 135.007 182.821 135.007 182.821 97.336 204.483 135.007 226.406 135.012 226.409" fill="#33b4d7"/><polygon points="135.007 269.995 135.007 269.995 135.009 269.997 135.009 226.412 135.009 226.412 97.331 204.485 97.331 204.488 97.331 204.485 97.331 248.071 97.35 248.079 135.007 269.995" fill="#209ac5"/><polygon points="172.685 204.747 135.331 226.228 135.012 226.409 135.007 226.412 135.007 269.995 135.015 270 135.015 270 135.018 270 172.685 248.338 172.685 248.338 172.685 248.333 172.685 204.747 172.685 204.747 172.685 204.747" fill="#0f8cae"/></g></g><g opacity="0.9"><polygon points="135.012 91.412 135.012 91.412 135.015 91.412 135.331 91.228 172.685 69.755 135.026 47.821 135.026 47.821 135.026 47.821 135.026 47.821 135.026 47.821 97.344 69.469 135.007 91.409 135.012 91.412" fill="#bec831"/><polygon points="134.988 134.997 134.988 134.997 134.991 134.997 135.009 91.414 135.009 91.414 97.342 69.472 97.342 69.472 97.339 69.472 97.323 113.055 97.339 113.065 134.988 134.997" fill="#a1a938"/><polygon points="172.693 69.763 135.331 91.228 135.012 91.412 135.007 91.414 134.991 134.997 134.996 135 134.999 135 134.999 135.003 172.677 113.354 172.677 113.354 172.677 113.349 172.693 69.763 172.693 69.763 172.693 69.763" fill="#999b37"/></g><g opacity="0.9"><polygon points="172.683 113.349 172.683 113.349 172.685 113.349 173.001 113.168 210.356 91.695 172.696 69.758 172.696 69.761 172.696 69.761 172.696 69.758 172.696 69.758 135.015 91.406 172.677 113.346 172.683 113.349" fill="#ee539a"/><polygon points="172.661 156.935 172.661 156.935 172.661 156.935 172.68 113.352 172.68 113.352 135.012 91.412 135.012 91.412 135.009 91.409 134.993 134.995 135.009 135.003 172.661 156.935" fill="#d01b68"/><polygon points="210.364 91.701 173.001 113.165 172.683 113.349 172.677 113.352 172.661 156.935 172.669 156.94 172.669 156.94 172.669 156.94 210.348 135.292 210.348 135.294 210.348 135.289 210.367 91.701 210.364 91.701 210.364 91.701" fill="#ec0f68"/></g><g opacity="0.9"><polygon points="210.35 135.294 210.353 135.294 210.353 135.294 210.672 135.111 248.024 113.638 210.367 91.703 210.367 91.703 210.367 91.703 210.364 91.703 210.364 91.703 172.685 113.352 210.345 135.292 210.35 135.294" fill="#a159a2"/><polygon points="210.329 178.88 210.329 178.88 210.331 178.88 210.348 135.297 210.348 135.297 172.68 113.354 172.68 113.354 172.68 113.354 172.661 156.937 172.68 156.948 210.329 178.88" fill="#772a86"/><polygon points="248.032 113.646 210.669 135.111 210.35 135.294 210.348 135.297 210.329 178.88 210.337 178.885 210.337 178.883 210.337 178.885 248.015 157.237 248.015 157.237 248.015 157.232 248.034 113.646 248.032 113.646 248.032 113.646" fill="#8e3b95"/></g><g opacity="0.9"><polygon points="97.334 113.057 97.334 113.057 97.336 113.057 97.652 112.876 135.007 91.404 97.347 69.469 97.347 69.469 97.347 69.469 97.347 69.469 97.347 69.469 59.666 91.115 97.328 113.055 97.334 113.057" fill="#c8d92b"/><polygon points="97.312 156.643 97.312 156.643 97.312 156.643 97.331 113.06 97.331 113.06 59.663 91.12 59.663 91.12 59.66 91.12 59.644 134.703 59.66 134.714 97.312 156.643" fill="#c2d02f"/><polygon points="135.015 91.409 97.652 112.876 97.334 113.057 97.328 113.06 97.312 156.643 97.32 156.648 97.32 156.648 97.32 156.648 134.999 135 134.999 135.003 134.999 134.997 135.018 91.409 135.015 91.412 135.015 91.409" fill="#b9be33"/></g><g opacity="0.9"><polygon points="135.004 134.995 135.004 134.995 135.007 134.997 135.323 134.814 172.677 113.341 135.02 91.406 135.018 91.406 135.018 91.406 135.018 91.406 135.018 91.406 97.336 113.055 134.999 134.992 135.004 134.995" fill="#f7af19"/><polygon points="134.982 178.583 134.982 178.58 134.982 178.583 135.001 135 135.001 134.997 97.334 113.057 97.334 113.057 97.331 113.057 97.315 156.64 97.331 156.651 134.982 178.583" fill="#f2901f"/><polygon points="172.685 113.346 135.323 134.814 135.004 134.995 135.001 134.997 134.982 178.583 134.991 178.586 134.991 178.586 134.991 178.586 172.669 156.94 172.669 156.94 172.669 156.935 172.688 113.349 172.685 113.349 172.685 113.346" fill="#f9a120"/></g><g opacity="0.9"><polygon points="172.675 156.94 172.675 156.94 172.675 156.94 172.993 156.759 210.345 135.286 172.688 113.352 172.688 113.352 172.688 113.352 172.685 113.352 172.685 113.352 135.007 135 172.669 156.937 172.675 156.94" fill="#a159a2"/><polygon points="172.65 200.526 172.65 200.526 172.653 200.526 172.669 156.943 172.669 156.943 135.001 135.003 135.001 135.003 135.001 135 134.982 178.586 135.001 178.596 172.65 200.526" fill="#772a86"/><polygon points="210.353 135.292 172.991 156.756 172.675 156.94 172.669 156.943 172.65 200.526 172.658 200.531 172.658 200.531 172.661 200.531 210.337 178.883 210.34 178.885 210.34 178.88 210.356 135.292 210.353 135.294 210.353 135.292" fill="#8e3b95"/></g><g opacity="0.9"><polygon points="59.655 134.706 59.655 134.706 59.658 134.706 59.974 134.525 97.328 113.052 59.669 91.115 59.669 91.115 59.669 91.117 59.669 91.115 59.669 91.115 21.987 112.763 59.65 134.703 59.655 134.706" fill="#f6dd03"/><polygon points="59.633 178.291 59.633 178.291 59.633 178.291 59.652 134.708 59.652 134.708 21.985 112.768 21.985 112.768 21.982 112.766 21.966 156.351 21.982 156.362 59.633 178.291" fill="#f9bb1d"/><polygon points="97.336 113.057 59.974 134.525 59.655 134.706 59.65 134.708 59.633 178.291 59.639 178.297 59.642 178.297 59.642 178.297 97.32 156.648 97.32 156.648 97.32 156.643 97.339 113.057 97.336 113.057 97.336 113.057" fill="#e9ae20"/></g><g opacity="0.9"><polygon points="97.325 156.643 97.325 156.643 97.328 156.643 97.644 156.462 134.999 134.989 97.342 113.055 97.342 113.055 97.339 113.055 97.339 113.055 97.339 113.055 59.658 134.703 97.32 156.64 97.325 156.643" fill="#f7af19"/><polygon points="97.304 200.228 97.304 200.228 97.304 200.228 97.323 156.646 97.323 156.646 59.655 134.706 59.655 134.706 59.652 134.706 59.636 178.288 59.652 178.299 97.304 200.228" fill="#f2901f"/><polygon points="135.007 134.995 97.644 156.462 97.325 156.643 97.323 156.646 97.304 200.228 97.312 200.234 97.312 200.234 97.312 200.234 134.991 178.588 134.991 178.588 134.991 178.583 135.009 134.995 135.007 134.997 135.007 134.995" fill="#f9a120"/></g><g opacity="0.9"><polygon points="134.996 178.588 134.996 178.588 134.996 178.588 135.315 178.407 172.666 156.935 135.009 134.997 135.009 135 135.009 135 135.007 134.997 135.007 134.997 97.328 156.646 134.991 178.586 134.996 178.588" fill="#31838b"/><polygon points="134.972 222.174 134.972 222.174 134.974 222.174 134.991 178.591 134.991 178.591 97.323 156.648 97.323 156.651 97.323 156.648 97.304 200.234 97.323 200.242 134.972 222.174" fill="#22626c"/><polygon points="172.675 156.94 135.312 178.405 134.996 178.588 134.991 178.591 134.972 222.174 134.98 222.179 134.98 222.179 134.982 222.179 172.658 200.531 172.661 200.531 172.661 200.526 172.677 156.94 172.675 156.94 172.675 156.94" fill="#1b4b56"/></g><g opacity="0.9"><polygon points="134.993 43.588 134.996 43.588 134.996 43.591 135.312 43.407 172.658 21.921 134.991 0 134.991 0 134.991 0 134.991 0 134.988 0 97.317 21.662 134.988 43.586 134.993 43.588" fill="#bec831"/><polygon points="134.988 87.177 134.988 87.174 134.991 87.177 134.991 43.594 134.991 43.591 97.315 21.667 97.315 21.667 97.312 21.667 97.312 65.25 97.331 65.261 134.988 87.177" fill="#a1a938"/><polygon points="172.666 21.926 135.312 43.407 134.993 43.588 134.991 43.591 134.991 87.177 134.996 87.179 134.999 87.179 134.999 87.179 172.669 65.517 172.669 65.517 172.669 65.512 172.669 21.926 172.666 21.926 172.666 21.926" fill="#999b37"/></g><g opacity="0.9"><polygon points="172.675 65.512 172.675 65.512 172.677 65.512 172.993 65.331 210.337 43.842 172.672 21.921 172.672 21.924 172.672 21.924 172.669 21.921 172.669 21.921 134.999 43.586 172.669 65.509 172.675 65.512" fill="#ee539a"/><polygon points="172.669 109.098 172.669 109.098 172.672 109.098 172.672 65.515 172.672 65.515 134.993 43.588 134.993 43.588 134.993 43.588 134.993 87.171 135.009 87.182 172.669 109.098" fill="#d01b68"/><polygon points="210.345 43.848 172.991 65.331 172.675 65.512 172.669 65.515 172.669 109.098 172.677 109.103 172.677 109.103 172.68 109.103 210.348 87.441 210.348 87.441 210.348 87.436 210.348 43.848 210.345 43.85 210.345 43.848" fill="#ec0f68"/></g><g opacity="0.9"><polygon points="210.35 87.441 210.353 87.441 210.353 87.441 210.672 87.26 248.015 65.771 210.348 43.85 210.348 43.853 210.348 43.853 210.348 43.85 210.345 43.85 172.675 65.515 210.345 87.439 210.35 87.441" fill="#a159a2"/><polygon points="210.345 131.027 210.345 131.027 210.348 131.027 210.348 87.444 210.348 87.444 172.672 65.517 172.672 65.517 172.672 65.517 172.672 109.1 172.688 109.111 210.345 131.027" fill="#772a86"/><polygon points="248.024 65.777 210.669 87.26 210.35 87.441 210.348 87.444 210.348 131.027 210.356 131.032 210.356 131.032 210.356 131.032 248.026 109.37 248.026 109.37 248.026 109.365 248.026 65.777 248.024 65.779 248.024 65.777" fill="#8e3b95"/></g><g opacity="0.9"><polygon points="97.325 65.25 97.325 65.25 97.325 65.253 97.644 65.069 134.988 43.583 97.323 21.662 97.32 21.662 97.32 21.662 97.32 21.662 97.32 21.662 59.647 43.324 97.32 65.247 97.325 65.25" fill="#c8d92b"/><polygon points="97.32 108.838 97.32 108.836 97.32 108.838 97.32 65.255 97.32 65.253 59.644 43.329 59.644 43.329 59.644 43.329 59.644 86.912 59.66 86.923 97.32 108.838" fill="#c2d02f"/><polygon points="134.996 43.588 97.642 65.069 97.325 65.25 97.32 65.253 97.32 108.838 97.328 108.841 97.328 108.841 97.328 108.841 134.999 87.179 134.999 87.179 134.999 87.174 134.999 43.588 134.996 43.588 134.996 43.588" fill="#b9be33"/></g><g opacity="0.9"><polygon points="135.004 87.174 135.004 87.174 135.007 87.174 135.323 86.993 172.669 65.504 135.001 43.586 135.001 43.586 135.001 43.586 135.001 43.586 134.999 43.586 97.328 65.247 134.999 87.171 135.004 87.174" fill="#c8d92b"/><polygon points="134.999 130.759 134.999 130.759 135.001 130.759 135.001 87.177 135.001 87.177 97.325 65.25 97.325 65.25 97.323 65.25 97.323 108.833 97.342 108.844 134.999 130.759" fill="#c2d02f"/><polygon points="172.677 65.509 135.323 86.99 135.004 87.174 135.001 87.177 135.001 130.759 135.007 130.765 135.007 130.765 135.009 130.765 172.677 109.103 172.68 109.103 172.68 109.098 172.68 65.512 172.677 65.512 172.677 65.509" fill="#b9be33"/></g><g opacity="0.9"><polygon points="172.683 109.103 172.683 109.103 172.685 109.103 173.001 108.919 210.24 87.252 172.469 65.515 172.467 65.515 172.467 65.515 172.467 65.515 172.467 65.515 134.899 87.36 172.677 109.1 172.683 109.103" fill="#833593"/><polygon points="172.888 152.689 172.888 152.689 172.891 152.689 172.68 109.106 172.68 109.106 134.896 87.363 134.896 87.363 134.896 87.363 135.107 130.946 135.123 130.957 172.888 152.689" fill="#652977"/><polygon points="210.248 87.258 172.999 108.919 172.683 109.103 172.677 109.106 172.888 152.689 172.896 152.694 172.896 152.694 172.899 152.694 210.461 130.849 210.461 130.849 210.461 130.843 210.25 87.258 210.248 87.258 210.248 87.258" fill="#4d1f5b"/></g><g opacity="0.9"><polygon points="59.655 86.915 59.655 86.915 59.658 86.915 59.974 86.734 97.317 65.245 59.652 43.324 59.652 43.326 59.652 43.326 59.65 43.324 59.65 43.324 21.979 64.988 59.65 86.912 59.655 86.915" fill="#f6dd03"/><polygon points="59.65 130.5 59.65 130.5 59.652 130.5 59.652 86.917 59.652 86.917 21.974 64.991 21.974 64.991 21.974 64.991 21.974 108.574 21.99 108.585 59.65 130.5" fill="#f9bb1d"/><polygon points="97.328 65.25 59.974 86.734 59.655 86.915 59.65 86.917 59.65 130.5 59.658 130.506 59.658 130.506 59.66 130.506 97.328 108.844 97.328 108.844 97.328 108.838 97.328 65.25 97.328 65.253 97.328 65.25" fill="#e9ae20"/></g><g opacity="0.9"><polygon points="97.334 108.838 97.336 108.836 97.336 108.838 97.652 108.655 134.999 87.168 97.331 65.247 97.331 65.247 97.331 65.247 97.331 65.247 97.328 65.247 59.658 86.912 97.328 108.836 97.334 108.838" fill="#f7af19"/><polygon points="97.328 152.424 97.328 152.421 97.331 152.424 97.331 108.841 97.331 108.841 59.655 86.915 59.655 86.915 59.652 86.915 59.652 130.497 59.671 130.508 97.328 152.424" fill="#f2901f"/><polygon points="135.007 87.174 97.652 108.655 97.334 108.838 97.331 108.841 97.331 152.424 97.339 152.427 97.339 152.427 97.339 152.427 135.009 130.765 135.009 130.765 135.009 130.759 135.009 87.174 135.007 87.174 135.007 87.174" fill="#f9a120"/></g><g opacity="0.9"><polygon points="135.012 130.768 135.012 130.765 135.015 130.768 135.331 130.584 172.677 109.098 135.009 87.177 135.009 87.177 135.009 87.177 135.007 87.177 135.007 87.177 97.336 108.841 135.007 130.765 135.012 130.768" fill="#f7af19"/><polygon points="135.007 174.353 135.007 174.353 135.009 174.353 135.009 130.77 135.009 130.77 97.331 108.844 97.331 108.844 97.331 108.844 97.331 152.427 97.35 152.437 135.007 174.353" fill="#f2901f"/><polygon points="172.685 109.103 135.331 130.584 135.012 130.768 135.007 130.77 135.007 174.353 135.015 174.356 135.015 174.356 135.018 174.359 172.685 152.694 172.685 152.694 172.685 152.689 172.685 109.103 172.685 109.103 172.685 109.103" fill="#f9a120"/></g></svg>