<svg id="Warstwa_1" data-name="Warstwa 1" xmlns="http://www.w3.org/2000/svg" viewBox="0 0 270 270"><title>ipfs-icons-size-corrected</title><g id="Warstwa_4" data-name="Warstwa 4"><polygon points="135.005 120.072 135.005 149.918 135.005 186.474 135.005 216.311 192.503 249.512 192.503 219.665 192.503 183.109 192.503 153.273 135.005 120.072" fill="#0565d8"/><polygon points="77.508 153.273 77.508 183.109 77.508 219.665 77.508 249.512 135.005 216.311 135.005 186.474 135.005 149.918 135.005 120.072 77.508 153.273" fill="#055aad"/><polygon points="192.503 20.488 135.005 53.679 77.508 20.488 20 53.679 77.508 86.88 135.005 120.072 192.503 86.88 250 53.679 192.503 20.488" fill="#50a5f9"/><polygon points="77.508 86.88 20 53.679 20 120.072 20 149.918 20 186.474 20 216.311 77.508 249.512 77.508 219.665 77.508 183.109 77.508 153.273 135.005 186.474 135.005 120.072 77.508 86.88" fill="#2b94fc"/><polygon points="192.503 86.88 135.005 120.072 135.005 186.474 192.503 153.273 192.503 183.109 192.503 219.665 192.503 249.512 250 216.311 250 186.474 250 149.918 250 120.072 250 53.679 192.503 86.88" fill="#127bf9"/></g></svg>