<?xml version="1.0" encoding="UTF-8"?>
<svg viewBox="0 0 1330 471" version="1.1" xmlns="http://www.w3.org/2000/svg" xmlns:xlink="http://www.w3.org/1999/xlink">
    <!-- Generator: Sketch 44.1 (41455) - http://www.bohemiancoding.com/sketch -->
    <title>ipfs-illustration-network</title>
    <desc>Created with Sketch.</desc>
    <defs></defs>
    <g id="Welcome" stroke="none" stroke-width="1" fill="none" fill-rule="evenodd">
        <g id="After-Install-(missing-IPFS)" transform="translate(-40.000000, -297.000000)">
            <g id="ipfs-illustration-network" transform="translate(40.000000, 297.000000)">
                <path d="M415.342698,228.818633 L392.577894,266.549365" id="Shape" stroke="#6BCAD0" stroke-width="2.4797" stroke-linecap="round"></path>
                <path d="M384.447607,434.511978 L436.074931,416.255172" id="Shape" stroke="#6BCAD0" stroke-width="2.4797" opacity="0.3" stroke-linecap="round"></path>
                <path d="M466.156993,94.1239766 L392.577894,150.517221" id="Shape" stroke="#6BCAD0" stroke-width="3" opacity="0.6" stroke-linecap="round" stroke-linejoin="round"></path>
                <path d="M162.897283,291.703186 L203.955233,329.433918" id="Shape" stroke="#6BCAD0" stroke-width="2.4797" opacity="0.3" stroke-linecap="round"></path>
                <path d="M299.079592,345.66219 L277.127817,282.37193" id="Shape" stroke="#6BCAD0" stroke-width="3" opacity="0.6" stroke-linecap="round" stroke-linejoin="round"></path>
                <path d="M65.740352,398.80978 L79.9683544,447.900302" id="Shape" stroke="#6BCAD0" stroke-width="2.4797" opacity="0.3" stroke-linecap="round"></path>
                <path d="M136.47385,191.493608 L114.522075,128.203347 M833.239457,375.278786 L795.840136,285.617584 M833.239457,375.278786 L925.111701,434.511978 L1016.98395,397.998367 L987.714912,203.259105 L1084.87184,126.58052 L1307.2352,263.30371 L1269.42936,63.2902601" id="Shape" stroke="#6BCAD0" stroke-width="3" opacity="0.6" stroke-linecap="round" stroke-linejoin="round"></path>
                <path d="M852.752146,234.092821 L987.714912,203.259105 M757.627786,443.031821 L833.239457,375.278786 M1087.71744,123.740573 L1197.47632,77.8957048 M114.522075,128.203347 L165.742884,24.7481145 M114.522075,128.203347 L65.740352,283.994757 M14.9260574,105.889474 L116.148132,128.203347 M1244.63199,362.296169 L1307.2352,263.30371 M1045.43995,253.972454 L988.527941,203.259105 M760.066872,336.330934 L833.239457,375.278786 M988.527941,203.259105 L864.947576,158.22565 M1017.79697,47.0619883 L1084.87184,123.740573 M189.320716,192.710728 L116.148132,128.203347 M974.299938,103.455233 L1081.61973,123.740573 M1002.34943,203.259105 L1115.36042,221.921617 M854.378203,331.462452 L833.239457,375.278786 M934.868046,301.845856 L1016.98395,397.998367 L1162.51609,333.896693 M1150.72717,434.511978 L1016.98395,397.998367 M1307.2352,263.30371 L1114.54739,292.5146 M1124.71025,11.3597903 L1087.71744,123.740573 M129.156592,128.203347 L190.133745,113.192196" id="Shape" stroke="#6BCAD0" stroke-width="2.4797" opacity="0.3" stroke-linecap="round"></path>
                <ellipse id="Oval" fill="#F05234" fill-rule="nonzero" cx="925.111701" cy="434.511978" rx="22.764804" ry="22.7195806"></ellipse>
                <ellipse id="Oval" fill="#F05234" fill-rule="nonzero" cx="297.047021" cy="338.765174" rx="22.764804" ry="22.7195806"></ellipse>
                <ellipse id="Oval" fill="#F05234" fill-rule="nonzero" cx="1162.51609" cy="333.896693" rx="14.6345168" ry="14.6054446"></ellipse>
                <ellipse id="Oval" fill="#6BCAD0" fill-rule="nonzero" cx="165.742884" cy="24.7481145" rx="14.6345168" ry="14.6054446"></ellipse>
                <ellipse id="Oval" fill="#6BCAD0" fill-rule="nonzero" cx="1124.71025" cy="15.4168582" rx="14.6345168" ry="14.6054446"></ellipse>
                <ellipse id="Oval" fill="#6BCAD0" fill-rule="nonzero" cx="1269.42936" cy="71.404396" rx="22.764804" ry="22.7195806"></ellipse>
                <ellipse id="Oval" fill="#083B54" fill-rule="nonzero" cx="1099.91287" cy="292.5146" rx="14.6345168" ry="14.6054446"></ellipse>
                <ellipse id="Oval" fill="#083B54" fill-rule="nonzero" cx="1307.2352" cy="263.30371" rx="22.764804" ry="22.7195806"></ellipse>
                <ellipse id="Oval" fill="#F05234" fill-rule="nonzero" cx="14.9260574" cy="105.889474" rx="14.6345168" ry="14.6054446"></ellipse>
                <ellipse id="Oval" fill="#F05234" fill-rule="nonzero" cx="1014.95137" cy="47.0619883" rx="14.6345168" ry="14.6054446"></ellipse>
                <ellipse id="Oval" fill="#F05234" fill-rule="nonzero" cx="466.156993" cy="94.1239766" rx="14.6345168" ry="14.6054446"></ellipse>
                <ellipse id="Oval" fill="#F05234" fill-rule="nonzero" cx="852.752146" cy="234.092821" rx="14.6345168" ry="14.6054446"></ellipse>
                <ellipse id="Oval" fill="#6BCAD0" fill-rule="nonzero" cx="964.137079" cy="101.832406" rx="14.6345168" ry="14.6054446"></ellipse>
                <ellipse id="Oval" fill="#6BCAD0" fill-rule="nonzero" cx="1084.87184" cy="126.58052" rx="22.764804" ry="22.7195806"></ellipse>
                <ellipse id="Oval" fill="#6BCAD0" fill-rule="nonzero" cx="1117.39299" cy="222.733031" rx="14.6345168" ry="14.6054446"></ellipse>
                <ellipse id="Oval" fill="#6BCAD0" fill-rule="nonzero" cx="1045.43995" cy="253.566747" rx="14.6345168" ry="14.6054446"></ellipse>
                <ellipse id="Oval" fill="#6BCAD0" fill-rule="nonzero" cx="1244.63199" cy="362.296169" rx="14.6345168" ry="14.6054446"></ellipse>
                <ellipse id="Oval" fill="#6BCAD0" fill-rule="nonzero" cx="1016.98395" cy="397.998367" rx="22.764804" ry="22.7195806"></ellipse>
                <ellipse id="Oval" fill="#6BCAD0" fill-rule="nonzero" cx="392.577894" cy="148.894394" rx="22.764804" ry="22.7195806"></ellipse>
                <ellipse id="Oval" fill="#6BCAD0" fill-rule="nonzero" cx="189.320716" cy="192.710728" rx="14.6345168" ry="14.6054446"></ellipse>
                <ellipse id="Oval" fill="#6BCAD0" fill-rule="nonzero" cx="864.947576" cy="158.22565" rx="14.6345168" ry="14.6054446"></ellipse>
                <ellipse id="Oval" fill="#6BCAD0" fill-rule="nonzero" cx="856.004261" cy="323.348316" rx="14.6345168" ry="14.6054446"></ellipse>
                <ellipse id="Oval" fill="#6BCAD0" fill-rule="nonzero" cx="757.627786" cy="443.031821" rx="14.6345168" ry="14.6054446"></ellipse>
                <ellipse id="Oval" fill="#6BCAD0" fill-rule="nonzero" cx="65.740352" cy="286.023291" rx="14.6345168" ry="14.6054446"></ellipse>
                <ellipse id="Oval" fill="#6BCAD0" fill-rule="nonzero" cx="60.8621797" cy="384.204336" rx="14.6345168" ry="14.6054446"></ellipse>
                <ellipse id="Oval" fill="#6BCAD0" fill-rule="nonzero" cx="259.6477" cy="434.511978" rx="14.6345168" ry="14.6054446"></ellipse>
                <ellipse id="Oval" fill="#6BCAD0" fill-rule="nonzero" cx="302.738222" cy="228.818633" rx="14.6345168" ry="14.6054446"></ellipse>
                <ellipse id="Oval" fill="#6BCAD0" fill-rule="nonzero" cx="331.194227" cy="61.667433" rx="14.6345168" ry="14.6054446"></ellipse>
                <ellipse id="Oval" fill="#6BCAD0" fill-rule="nonzero" cx="760.066872" cy="337.953761" rx="14.6345168" ry="14.6054446"></ellipse>
                <ellipse id="Oval" fill="#083B54" fill-rule="nonzero" cx="1197.47632" cy="77.8957048" rx="14.6345168" ry="14.6054446"></ellipse>
                <ellipse id="Oval" fill="#083B54" fill-rule="nonzero" cx="987.714912" cy="203.259105" rx="22.764804" ry="22.7195806"></ellipse>
                <ellipse id="Oval" fill="#083B54" fill-rule="nonzero" cx="1150.72717" cy="434.511978" rx="14.6345168" ry="14.6054446"></ellipse>
                <ellipse id="Oval" fill="#083B54" fill-rule="nonzero" cx="934.868046" cy="301.845856" rx="14.6345168" ry="14.6054446"></ellipse>
                <ellipse id="Oval" fill="#083B54" fill-rule="nonzero" cx="415.342698" cy="228.818633" rx="14.6345168" ry="14.6054446"></ellipse>
                <ellipse id="Oval" fill="#083B54" fill-rule="nonzero" cx="384.447607" cy="434.511978" rx="14.6345168" ry="14.6054446"></ellipse>
                <ellipse id="Oval" fill="#083B54" fill-rule="nonzero" cx="114.522075" cy="128.203347" rx="22.764804" ry="22.7195806"></ellipse>
                <path d="M79.9683544,447.900302 L159.645168,406.923916" id="Shape" stroke="#6BCAD0" stroke-width="3" stroke-linecap="round" stroke-linejoin="round"></path>
                <ellipse id="Oval" fill="#083B54" fill-rule="nonzero" cx="79.9683544" cy="447.900302" rx="22.764804" ry="22.7195806"></ellipse>
                <ellipse id="Oval" fill="#083B54" fill-rule="nonzero" cx="833.239457" cy="375.278786" rx="22.764804" ry="22.7195806"></ellipse>
                <ellipse id="Oval" fill="#F05234" fill-rule="nonzero" cx="162.897283" cy="403.678262" rx="14.6345168" ry="14.6054446"></ellipse>
                <ellipse id="Oval" fill="#F05234" fill-rule="nonzero" cx="162.897283" cy="291.703186" rx="14.6345168" ry="14.6054446"></ellipse>
                <path d="M331.194227,61.667433 L392.577894,148.894394" id="Shape" stroke="#6BCAD0" stroke-width="2.4797" opacity="0.3" stroke-linecap="round"></path>
                <rect id="Rectangle" fill="#6BCAD0" fill-rule="nonzero" x="559.655295" y="227.195806" width="65.042297" height="40.5706796"></rect>
                <polygon id="Triangle" fill="#6BCAD0" fill-rule="nonzero" transform="translate(653.153597, 247.481145) rotate(90.000000) translate(-653.153597, -247.481145) " points="653.153597 215.024602 685.674745 279.937689 620.632448 279.937689"></polygon>
            </g>
        </g>
    </g>
</svg>