<?xml version="1.0" encoding="UTF-8"?>
<svg width="585px" height="190px" viewBox="0 0 585 190" version="1.1" xmlns="http://www.w3.org/2000/svg" xmlns:xlink="http://www.w3.org/1999/xlink">
    <!-- Generator: Sketch 44.1 (41455) - http://www.bohemiancoding.com/sketch -->
    <title>logo-peerpad-lg</title>
    <desc>Created with Sketch.</desc>
    <defs></defs>
    <g id="Welcome" stroke="none" stroke-width="1" fill="none" fill-rule="evenodd">
        <g id="After-Install" transform="translate(-502.000000, -761.000000)" fill-rule="nonzero">
            <g id="logo-peerpad-lg" transform="translate(501.000000, 761.000000)">
                <path d="M113.847148,36.2126744 C114.202299,35.8823837 114.581867,35.7012209 114.989182,35.5863372 L67.0637045,8.04517442 C66.8983371,9.03604651 66.3001288,9.95180233 65.2857273,10.3538953 L112.964818,37.7514535 C113.104865,37.1650343 113.411103,36.6309558 113.847148,36.2126744 L113.847148,36.2126744 Z M118.607288,42.7389535 C117.678345,43.1543023 116.710557,43.1531977 115.894818,42.7654651 L115.894818,95.7301744 C116.366504,95.3612209 116.975811,95.1259302 117.730508,95.1259302 C118.132273,95.1259302 118.478545,95.2032558 118.791523,95.3181395 L118.791523,42.6240698 C118.728261,42.6594186 118.674989,42.7091279 118.607288,42.7389535 Z M113.397659,102.294012 L67.39,128.146163 C68.3755455,128.594651 68.8683182,129.578895 68.9082727,130.604012 L115.231129,104.576221 C114.136818,104.238198 113.525292,103.316919 113.397659,102.294012 L113.397659,102.294012 Z M11.3493106,38.0497093 L59.9185,10.139593 C58.9673598,9.65354651 58.4990038,8.65715116 58.4923447,7.62872093 L9.92204545,35.5399419 C10.8742955,36.0248837 11.3415417,37.0212791 11.3493106,38.0497093 L11.3493106,38.0497093 Z M7.51922348,96.1168023 C8.08191667,96.1168023 8.54694318,96.2537791 8.9365,96.4702907 L8.9365,42.9477326 C8.45926515,43.3365698 7.83885985,43.5873256 7.06196591,43.5873256 C6.71297988,43.5866285 6.36675809,43.5257068 6.03868561,43.4072674 L6.03868561,96.494593 C6.49063366,96.2422621 7.00104842,96.1120189 7.51922348,96.1168023 L7.51922348,96.1168023 Z M61.4500909,127.75843 L10.7044886,101.75936 C10.5935038,102.75686 10.0530076,103.710174 9.09076894,104.176337 L59.5433712,130.026279 C59.7364848,129.023256 60.3846364,128.119651 61.4500909,127.75843 L61.4500909,127.75843 Z M29.8737917,177.496453 C31.0324735,177.61686 31.7560947,178.328256 32.046875,179.221919 L60.7708636,136.845291 C59.6809924,136.353721 59.2137462,135.181686 59.3236212,134.049419 L29.8737917,177.496453 Z M91.4093409,184.343081 C90.9365455,183.489186 90.9198977,182.380116 91.328322,181.458837 L31.8970455,181.458837 C32.1634091,182.423198 31.9680758,183.536686 31.3387917,184.343081 L91.4093409,184.343081 Z" id="Shape" fill="#5BC9E3"></path>
                <path d="M62.4156591,13.5076744 C58.8330682,13.5076744 55.9174962,10.6057558 55.9174962,7.03994186 C55.9174962,3.47412791 58.8330682,0.572209302 62.4156591,0.572209302 C65.99825,0.572209302 68.913822,3.47412791 68.913822,7.03994186 C68.913822,10.6057558 65.99825,13.5076744 62.4156591,13.5076744 L62.4156591,13.5076744 Z M62.4156591,3.45534884 C60.4301402,3.45534884 58.8153106,5.06261628 58.8153106,7.03883721 C58.8153106,9.01505814 60.4301402,10.6223256 62.4156591,10.6223256 C64.401178,10.6223256 66.0160076,9.01505814 66.0160076,7.03883721 C66.0160076,5.06261628 64.401178,3.45534884 62.4156591,3.45534884 Z" id="Shape" fill="#5BC9E3"></path>
                <path d="M57.8297652,8.93773256 L47.1885379,10.0280233 L54.5901174,20.2140116 L58.8286288,10.7924419 C58.2537273,10.3395349 57.9218826,9.66127907 57.8297652,8.93773256 L57.8297652,8.93773256 Z M7.48814773,45.2564535 C3.90555682,45.2564535 0.989984848,42.3545349 0.989984848,38.7887209 C0.989984848,35.222907 3.90555682,32.3209884 7.48814773,32.3209884 C11.0707386,32.3209884 13.9863106,35.222907 13.9863106,38.7887209 C13.9863106,42.3545349 11.0707386,45.2564535 7.48814773,45.2564535 Z M7.48814773,35.2041279 C5.50262879,35.2041279 3.88779924,36.8113953 3.88779924,38.7876163 C3.88779924,40.7638372 5.50262879,42.3711047 7.48814773,42.3711047 C9.47366667,42.3711047 11.0884962,40.7638372 11.0884962,38.7876163 C11.0884962,36.8113953 9.47255682,35.2041279 7.48814773,35.2041279 Z" id="Shape" fill="#5BC9E3"></path>
                <polygon id="Shape" fill="#5BC9E3" transform="translate(62.161307, 69.965958) rotate(-60.843000) translate(-62.161307, -69.965958) " points="60.7129548 12.2241848 63.6096593 12.2241848 63.6096593 127.707731 60.7129548 127.707731"></polygon>
                <path d="M67.7529205,9.6877907 C67.4456201,9.97343711 67.0748412,10.1827505 66.6708182,10.2986628 L71.1978902,19.0154651 L78.0145795,8.43290698 L68.6541174,7.99877907 C68.5396514,8.64210257 68.2243024,9.23312549 67.7529205,9.6877907 L67.7529205,9.6877907 Z M117.34317,45.2564535 C113.76058,45.2564535 110.845008,42.3545349 110.845008,38.7887209 C110.845008,35.222907 113.76058,32.3209884 117.34317,32.3209884 C120.925761,32.3209884 123.841333,35.222907 123.841333,38.7887209 C123.841333,42.3545349 120.926871,45.2564535 117.34317,45.2564535 Z M117.34317,35.2041279 C115.357652,35.2041279 113.742822,36.8113953 113.742822,38.7876163 C113.742822,40.7638372 115.357652,42.3711047 117.34317,42.3711047 C119.328689,42.3711047 120.943519,40.7638372 120.943519,38.7876163 C120.943519,36.8113953 119.328689,35.2041279 117.34317,35.2041279 Z M7.45596212,43.2956977 C7.30946212,43.2956977 7.17960985,43.2713953 7.04420833,43.2548256 L1.172,53.3778488 L13.8020758,53.3778488 L7.92653788,43.2481977 C7.77337879,43.2702907 7.62243939,43.2956977 7.45596212,43.2956977 Z M7.48814773,106.792151 C3.90555682,106.792151 0.989984848,103.890233 0.989984848,100.324419 C0.989984848,96.7586047 3.90555682,93.856686 7.48814773,93.856686 C11.0707386,93.856686 13.9863106,96.7586047 13.9863106,100.324419 C13.9863106,103.890233 11.0707386,106.792151 7.48814773,106.792151 Z M7.48814773,96.7409302 C5.50262879,96.7409302 3.88779924,98.3481977 3.88779924,100.324419 C3.88779924,102.30064 5.50262879,103.907907 7.48814773,103.907907 C9.47366667,103.907907 11.0884962,102.30064 11.0884962,100.324419 C11.0884962,98.3481977 9.47255682,96.7409302 7.48814773,96.7409302 L7.48814773,96.7409302 Z" id="Shape" fill="#5BC9E3"></path>
                <path d="M116.955833,44.5616279 C116.520773,44.5616279 116.145644,44.4776744 115.813799,44.342907 L111.028133,52.5935465 L123.658208,52.5935465 L118.692746,44.0347093 C118.236598,44.3594767 117.658367,44.5616279 116.955833,44.5616279 Z M11.5823788,43.1388372 L16.4102197,51.4623837 L22.7252576,40.5749419 L12.6766894,40.5749419 C12.7099848,41.5326744 12.3415152,42.515814 11.5823788,43.1388372 Z M117.34317,106.792151 C113.76058,106.792151 110.845008,103.890233 110.845008,100.324419 C110.845008,96.7586047 113.76058,93.856686 117.34317,93.856686 C120.925761,93.856686 123.841333,96.7586047 123.841333,100.324419 C123.841333,103.890233 120.926871,106.792151 117.34317,106.792151 Z M117.34317,96.7409302 C115.357652,96.7409302 113.742822,98.3481977 113.742822,100.324419 C113.742822,102.30064 115.357652,103.907907 117.34317,103.907907 C119.328689,103.907907 120.943519,102.30064 120.943519,100.324419 C120.943519,98.3481977 119.328689,96.7409302 117.34317,96.7409302 L117.34317,96.7409302 Z M10.7910568,104.538663 L15.8042424,113.180349 L22.1192803,102.292907 L11.6522992,102.292907 C11.6556288,103.113663 11.3659583,103.941047 10.7910568,104.538663 Z" id="Shape" fill="#5BC9E3"></path>
                <path d="M113.02142,102.294012 L103.919553,102.294012 L110.234591,113.181453 L114.989182,104.983837 C113.68289,104.644709 113.038068,103.492558 113.02142,102.294012 L113.02142,102.294012 Z M63.9150644,138.25814 C60.3280028,138.253879 57.4211824,135.360671 57.4169015,131.790407 C57.4169015,128.224593 60.3324735,125.322674 63.9150644,125.322674 C67.4976553,125.322674 70.4132273,128.224593 70.4132273,131.790407 C70.4089464,135.360671 67.502126,138.253879 63.9150644,138.25814 L63.9150644,138.25814 Z M63.9150644,128.205814 C61.9274077,128.207641 60.3165515,129.810954 60.3147159,131.789302 C60.3165515,133.767651 61.9274077,135.370964 63.9150644,135.372791 C65.9027211,135.370964 67.5135773,133.767651 67.5154129,131.789302 C67.5129668,129.811206 65.9024679,128.208249 63.9150644,128.205814 L63.9150644,128.205814 Z" id="Shape" fill="#5BC9E3"></path>
                <path d="M61.0472159,136.173663 C59.4923182,136.173663 58.6133182,135.202674 58.3558333,134.049419 L50.4359545,138.600581 L61.3746212,144.886047 L61.3746212,136.141628 C61.2647462,136.15157 61.1626402,136.173663 61.0472159,136.173663 Z M26.8516742,189.369244 C23.2646127,189.364983 20.3577922,186.471775 20.3535114,182.901512 C20.3577922,179.331248 23.2646127,176.43804 26.8516742,176.433779 C30.4387358,176.43804 33.3455562,179.331248 33.3498371,182.901512 C33.3455562,186.471775 30.4387358,189.364983 26.8516742,189.369244 L26.8516742,189.369244 Z M26.8516742,179.318023 C24.8640175,179.31985 23.2531614,180.923163 23.2513258,182.901512 C23.2513258,184.877733 24.8661553,186.485 26.8516742,186.485 C28.8371932,186.485 30.4520227,184.877733 30.4520227,182.901512 C30.4495767,180.923415 28.8390777,179.320458 26.8516742,179.318023 L26.8516742,179.318023 Z" id="Shape" fill="#5BC9E3"></path>
                <path d="M31.7605341,183.702384 L40.6548598,188.813605 L40.6548598,176.242674 L31.9603068,181.239012 C32.2100227,182.031047 32.1334432,182.940174 31.7605341,183.702384 L31.7605341,183.702384 Z M95.9153258,188.994767 C92.3327348,188.994767 89.4171629,186.092849 89.4171629,182.527035 C89.4171629,178.961221 92.3327348,176.059302 95.9153258,176.059302 C99.4979167,176.059302 102.413489,178.961221 102.413489,182.527035 C102.413489,186.092849 99.4979167,188.994767 95.9153258,188.994767 L95.9153258,188.994767 Z M95.9153258,178.943547 C93.927669,178.945374 92.3168129,180.548686 92.3149773,182.527035 C92.3168129,184.505384 93.927669,186.108696 95.9153258,186.110523 C97.9029825,186.108696 99.5138386,184.505384 99.5156742,182.527035 C99.5138386,180.548686 97.9029825,178.945374 95.9153258,178.943547 L95.9153258,178.943547 Z" id="Shape" fill="#5BC9E3"></path>
                <path d="M154.101352,108.749593 L184.482345,108.749593 C199.672841,108.749593 208.17539,119.13 208.17539,131.428081 C208.17539,143.727267 199.446432,154.107674 184.482345,154.107674 L163.510648,154.107674 L163.510648,184.007267 L154.101352,184.007267 L154.101352,108.749593 L154.101352,108.749593 Z M183.349189,117.099651 L163.510648,117.099651 L163.510648,145.758721 L183.349189,145.758721 C192.304557,145.758721 198.426481,139.890814 198.426481,131.428081 C198.426481,122.966453 192.304557,117.099651 183.349189,117.099651 L183.349189,117.099651 Z M242.640625,128.157209 C259.191795,128.157209 268.940705,141.020872 268.940705,157.380756 L268.940705,159.523779 L224.616686,159.523779 C225.297023,169.791512 232.552102,178.366919 244.340913,178.366919 C250.576042,178.366919 256.924375,175.884767 261.231697,171.484942 L265.31261,177.013721 C259.871023,182.429826 252.502739,185.363779 243.547371,185.363779 C227.336924,185.363779 215.660208,173.741744 215.660208,156.704709 C215.661318,140.907093 226.997311,128.157209 242.640625,128.157209 L242.640625,128.157209 Z M224.616686,153.318953 L260.55247,153.318953 C260.439265,145.195349 254.997678,135.152965 242.52742,135.152965 C230.851814,135.152965 225.069504,144.968895 224.616686,153.318953 L224.616686,153.318953 Z M306.465792,128.157209 C323.016962,128.157209 332.765871,141.020872 332.765871,157.380756 L332.765871,159.523779 L288.440742,159.523779 C289.12108,169.791512 296.376159,178.366919 308.16497,178.366919 C314.400098,178.366919 320.748432,175.884767 325.055754,171.484942 L329.136667,177.013721 C323.69508,182.429826 316.326795,185.363779 307.371428,185.363779 C291.160981,185.363779 279.484265,173.741744 279.484265,156.704709 C279.486485,140.907093 290.822477,128.157209 306.465792,128.157209 L306.465792,128.157209 Z M288.441852,153.318953 L324.377636,153.318953 C324.264432,145.195349 318.822845,135.152965 306.352587,135.152965 C294.676981,135.152965 288.89467,144.968895 288.441852,153.318953 L288.441852,153.318953 Z M346.484708,129.510407 L354.987258,129.510407 L354.987258,138.312267 C359.407784,132.557035 365.757227,128.382558 373.238716,128.382558 L373.238716,137.07064 C372.218765,136.845291 371.198814,136.731512 369.83814,136.731512 C364.622962,136.731512 357.481087,141.019767 354.987258,145.419593 L354.987258,184.008372 L346.484708,184.008372 L346.484708,129.510407 Z M385.36825,108.749593 L411.555125,108.749593 C425.612466,108.749593 433.659977,118.566628 433.659977,130.074884 C433.659977,141.584244 425.384947,151.400174 411.555125,151.400174 L388.995235,151.400174 L388.995235,184.009477 L385.36714,184.009477 L385.36714,108.749593 L385.36825,108.749593 Z M411.44192,112.135349 L388.995235,112.135349 L388.995235,148.015523 L411.44192,148.015523 C422.551504,148.015523 429.693379,140.455291 429.693379,130.074884 C429.693379,119.694477 422.551504,112.135349 411.44192,112.135349 Z M481.163712,177.351744 C476.061739,182.880523 469.940924,185.362674 462.231917,185.362674 C452.596212,185.362674 443.073712,178.818721 443.073712,167.197791 C443.073712,155.575756 452.483008,149.031802 462.231917,149.031802 C469.940924,149.031802 476.061739,151.513953 481.163712,157.042733 L481.163712,144.742442 C481.163712,135.941686 474.135042,131.202733 465.745697,131.202733 C458.603822,131.202733 453.275439,133.684884 448.174576,139.77814 L445.567542,137.521337 C450.895924,131.316512 456.56392,128.156105 465.745697,128.156105 C476.515667,128.156105 484.564288,133.572209 484.564288,144.629767 L484.564288,184.007267 L481.163712,184.007267 L481.163712,177.351744 L481.163712,177.351744 Z M481.163712,160.427384 C476.969595,154.898605 470.280538,152.077326 463.138663,152.077326 C453.162235,152.077326 446.815011,158.733953 446.815011,167.197791 C446.815011,175.659419 453.163345,182.317151 463.138663,182.317151 C470.280538,182.317151 476.968485,179.495872 481.163712,173.967093 L481.163712,160.427384 Z M545.328492,174.869593 C541.587193,180.511047 534.218909,185.362674 525.604265,185.362674 C510.866587,185.362674 501.117678,174.079767 501.117678,156.816279 C501.117678,139.66657 510.866587,128.157209 525.604265,128.157209 C533.766091,128.157209 540.907966,132.445465 545.328492,138.876744 L545.328492,108.750698 L548.729068,108.750698 L548.729068,184.009477 L545.328492,184.009477 L545.328492,174.869593 Z M545.328492,142.260291 C541.927917,136.506163 534.105705,131.202733 525.604265,131.202733 C512.227261,131.202733 504.858977,142.48564 504.858977,156.816279 C504.858977,171.145814 512.228371,182.316047 525.604265,182.316047 C534.106814,182.316047 541.927917,177.237965 545.328492,171.483837 L545.328492,142.260291 L545.328492,142.260291 Z" id="Shape" fill="#181818"></path>
                <path d="M584.269746,127.552965 C584.622099,127.015782 584.889366,126.427865 585.062178,125.809826 C585.216822,125.2405 585.320443,124.658648 585.371826,124.071105 C585.399572,123.761802 585.429538,123.397267 585.435087,123.043779 C585.436197,122.971977 585.391803,122.926686 585.317443,122.923372 C584.984248,122.909934 584.650634,122.910302 584.31747,122.924477 C584.228682,122.927791 584.210924,123.009535 584.206485,123.043779 C584.196496,123.135465 584.190947,123.227151 584.185398,123.317733 C584.180953,123.393293 584.175403,123.468786 584.16875,123.544186 C584.132125,123.947384 584.061095,124.306395 583.94789,124.641105 C583.792511,125.103953 583.406284,125.441977 582.915731,125.543605 C582.417409,125.646337 581.890231,125.490581 581.575034,125.143721 C581.315838,124.855468 581.10114,124.530462 580.937981,124.17936 C580.588379,123.449186 580.388606,122.685872 580.21325,121.967849 C580.187652,121.852271 580.192237,121.732092 580.226568,121.618779 C580.656096,120.028553 581.048349,118.428584 581.403008,116.820174 C581.723754,115.392965 582.04783,113.965756 582.371905,112.539651 C582.670455,111.222907 582.969004,109.907267 583.265333,108.590523 C583.274322,108.550959 583.275078,108.509982 583.267553,108.470116 C583.254235,108.420407 583.242027,108.369593 583.088867,108.369593 L579.583966,108.369593 C579.421928,108.369593 579.390852,108.396105 579.355337,108.555174 L578.510742,112.327558 L578.100098,113.496279 L577.508549,112.221512 C577.457496,112.104419 577.408663,111.992849 577.35761,111.882384 C576.900352,110.888198 576.443095,110.128198 575.915917,109.493023 C575.43117,108.89994 574.807738,108.434177 574.100205,108.136512 C573.469339,107.871973 572.791482,107.73636 572.106917,107.737733 C571.779511,107.737733 571.445447,107.767558 571.108053,107.827209 C569.715839,108.072632 568.426795,108.719898 567.401159,109.688547 C566.339034,110.673895 565.576568,111.916628 565.069367,113.486337 C564.639856,114.817442 564.413447,116.240233 564.377932,117.837558 C564.342717,119.076746 564.431199,120.316353 564.642076,121.53814 C564.908439,123.026105 565.351269,124.268837 565.998311,125.33593 C566.441603,126.079428 567.011284,126.740632 567.681951,127.290058 C568.751969,128.159967 570.051376,128.704221 571.42436,128.857558 C572.242318,128.953663 573.112439,128.891802 574.083557,128.668663 C574.792374,128.505714 575.469256,128.227271 576.086833,127.844593 C576.803795,127.392767 577.436546,126.820538 577.956928,126.153372 C578.057924,126.025233 578.156701,125.894884 578.257697,125.761221 L578.922496,124.886337 L579.247682,125.678372 L578.793754,125.862849 L579.25767,125.702674 L579.286527,125.775581 C579.517375,126.433953 579.752663,126.948721 580.025686,127.392791 C580.35753,127.932965 580.700473,128.309651 581.106678,128.576977 C581.805883,129.038721 582.793648,129.000058 583.455117,128.485291 C583.743678,128.262151 583.994504,127.974942 584.269746,127.552965 L584.269746,127.552965 Z M577.110114,118.915698 C576.99025,119.356453 576.883705,119.800523 576.776049,120.244593 C576.676163,120.659942 576.575167,121.075291 576.465292,121.48843 C576.174511,122.577616 575.881511,123.391744 575.516371,124.129651 C575.131254,124.907326 574.723939,125.477326 574.235606,125.924709 C573.666254,126.446105 573.018102,126.710116 572.30558,126.710116 L572.164629,126.710116 C571.151337,126.710116 570.336708,126.24064 569.74072,125.311628 C569.387788,124.761512 569.136962,124.136279 568.927201,123.284593 C568.748515,122.558837 568.629761,121.767907 568.554292,120.796919 C568.472883,119.69126 568.453246,118.581954 568.49547,117.474128 C568.542083,116.041395 568.673045,114.879302 568.903894,113.818837 C569.07703,113.022384 569.299,112.383895 569.599769,111.808372 C569.919405,111.199709 570.278996,110.765581 570.735144,110.441919 C571.223213,110.091852 571.812932,109.910295 572.414345,109.924942 C572.809451,109.930465 573.112439,110.116047 573.332189,110.277326 C573.608542,110.480581 573.861587,110.73907 574.127951,111.091453 C574.745027,111.908895 575.182307,112.804767 575.529689,113.573605 C576.151205,114.952209 576.638428,116.379419 577.082367,117.722674 C577.214122,118.108142 577.223807,118.524575 577.110114,118.915698 L577.110114,118.915698 Z" id="Shape" fill="#5BC9E3"></path>
            </g>
        </g>
    </g>
</svg>